<svg class="MfDLTc" xmlns="http://www.w3.org/2000/svg" height="24" viewBox="0 -960 960 960" width="24" fill="#041E49"><path d="M209-120q-42 0-70.5-28.5T110-217q0-14 3-25.5t9-21.5l228-341q10-14 15-31t5-34v-170h220v170q0 17 5 34t15 31l227 341q7 9 10 20.5t3 26.5q0 41-28 69t-69 28H209Zm115-177q28 0 56-12t80-47q69-45 103.5-62.5T633-443q4-1 5.5-4.5t-.5-7.5l-78-117q-15-21-22.5-46t-7.5-52v-110H430v110q0 26-7.5 50.5T401-573L274-382q-3 4-9 28 0 23 17 40t42 17Zm26-483q-13 0-21.5-8.5T320-810q0-13 8.5-21.5T350-840h260q13 0 21.5 8.5T640-810q0 13-8.5 21.5T610-780H350Z"></path></svg>